<?xml version="1.0" encoding="utf-8"?>
<!-- Generator: Adobe Illustrator 25.0.0, SVG Export Plug-In . SVG Version: 6.00 Build 0)  -->
<svg version="1.1" id="Layer_1" xmlns="http://www.w3.org/2000/svg" xmlns:xlink="http://www.w3.org/1999/xlink" x="0px" y="0px"
	 viewBox="0 0 1000 1000" style="enable-background:new 0 0 1000 1000;" xml:space="preserve">
<style type="text/css">
	.st0{display:none;fill:#FF0000;}
	.st1{display:none;}
	.st2{display:inline;fill:#4D4D4D;}
	.st3{display:inline;}
	.st4{fill:#4D4D4D;}
</style>
<rect class="st0" width="1000" height="1000"/>
<g class="st1">
	<path class="st2" d="M-472.4-114.6h-138.1l58.5-58.5c2.8-2.8,2.8-7.2,0-10s-7.2-2.8-10,0l-70.5,70.5c-2.8,2.8-2.8,7.2,0,10
		l70.5,70.5c1.4,1.4,3.2,2.1,5,2.1c1.8,0,3.6-0.7,5-2.1c2.8-2.8,2.8-7.2,0-10l-58.5-58.5h138.1c3.9,0,7-3.2,7-7.1
		C-465.3-111.5-468.5-114.6-472.4-114.6z"/>
	<path class="st2" d="M363.9-114.6h-63.5v-63.5c0-3.9-3.2-7.1-7-7.1c-3.9,0-7,3.2-7,7.1v63.5h-63.5c-3.9,0-7.1,3.2-7.1,7.1
		s3.2,7.1,7.1,7.1h63.5v63.5c0,3.9,3.2,7,7,7c3.9,0,7-3.2,7-7v-63.5h63.5c3.9,0,7-3.2,7-7.1C370.9-111.5,367.8-114.6,363.9-114.6z"
		/>
	<g class="st3">
		<path class="st4" d="M1642.4,1034.3c-0.4-0.9-0.9-1.6-1.5-2.3l-42.3-42.3c-0.7-0.7-1.4-1.2-2.3-1.5c-0.8-0.4-1.8-0.5-2.7-0.5
			h-98.7c-11.7,0-21.2,9.5-21.2,21.2V1164c0,11.7,9.5,21.2,21.2,21.2h126.9c11.7,0,21.2-9.5,21.2-21.2v-126.9
			C1642.9,1036.1,1642.8,1035.2,1642.4,1034.3z M1600.6,1011.8l18.2,18.2h-18.2V1011.8z M1621.8,1171h-126.9c-3.9,0-7.1-3.2-7.1-7.1
			v-155.1c0-3.9,3.2-7,7.1-7h91.7v35.3c0,3.9,3.2,7.1,7.1,7.1h35.3V1164C1628.8,1167.9,1625.7,1171,1621.8,1171z"/>
		<path class="st4" d="M1551.3,1114.6h-28.2c-3.9,0-7.1,3.2-7.1,7.1s3.2,7.1,7.1,7.1h28.2c3.9,0,7.1-3.2,7.1-7.1
			C1558.3,1117.8,1555.2,1114.6,1551.3,1114.6z"/>
		<path class="st4" d="M1593.6,1086.4h-70.5c-3.9,0-7.1,3.2-7.1,7.1s3.2,7.1,7.1,7.1h70.5c3.9,0,7.1-3.2,7.1-7.1
			C1600.6,1089.6,1597.5,1086.4,1593.6,1086.4z"/>
		<path class="st4" d="M1593.6,1058.2h-70.5c-3.9,0-7.1,3.2-7.1,7.1s3.2,7.1,7.1,7.1h70.5c3.9,0,7.1-3.2,7.1-7.1
			S1597.5,1058.2,1593.6,1058.2z"/>
	</g>
	<g class="st3">
		<path class="st4" d="M1200.1,1178.1c-1.4,0-2.7-0.4-3.9-1.2l-59.6-39.7l-59.6,39.7c-2.2,1.4-5,1.6-7.2,0.3
			c-2.3-1.2-3.7-3.6-3.7-6.2v-155.1c0-11.7,9.5-21.2,21.2-21.2h98.7c11.7,0,21.2,9.5,21.2,21.2V1171c0,2.6-1.4,5-3.7,6.2
			C1202.4,1177.8,1201.3,1178.1,1200.1,1178.1z M1136.7,1121.7c1.4,0,2.7,0.4,3.9,1.2l52.5,35v-142c0-3.9-3.2-7-7.1-7h-98.7
			c-3.9,0-7.1,3.2-7.1,7v142l52.5-35C1133.9,1122.1,1135.3,1121.7,1136.7,1121.7z"/>
	</g>
	<g class="st3">
		<path class="st4" d="M1115.5-51.2C1115.5-51.2,1115.5-51.2,1115.5-51.2c-2.1,0-4-0.9-5.3-2.4l-49.4-56.4c-2.6-2.9-2.3-7.4,0.7-9.9
			s7.4-2.3,9.9,0.7l44.2,50.5l86.3-93c2.7-2.9,7.1-3,10-0.4c2.8,2.6,3,7.1,0.4,10l-91.7,98.7C1119.4-52,1117.5-51.2,1115.5-51.2z"/>
	</g>
	<path class="st2" d="M725-107.6l58.5-58.5c2.8-2.8,2.8-7.2,0-10s-7.2-2.8-10,0L715-117.6L656.6-176c-2.8-2.8-7.2-2.8-10,0
		s-2.8,7.2,0,10l58.5,58.5l-58.5,58.5c-2.8,2.8-2.8,7.2,0,10c1.4,1.4,3.2,2.1,5,2.1c1.8,0,3.6-0.7,5-2.1L715-97.6l58.5,58.5
		c1.4,1.4,3.2,2.1,5,2.1c1.8,0,3.6-0.7,5-2.1c2.8-2.8,2.8-7.2,0-10L725-107.6z"/>
	<g class="st3">
		<g>
			<path class="st4" d="M-479.4,382.1h-98.7c-11.7,0-21.2-9.5-21.2-21.1v-98.7c0-11.7,9.5-21.1,21.2-21.1h98.7
				c11.7,0,21.1,9.5,21.1,21.1v98.7C-458.3,372.6-467.8,382.1-479.4,382.1z M-578.1,255.2c-3.9,0-7,3.2-7,7.1v98.7c0,3.9,3.2,7,7,7
				h98.7c3.9,0,7-3.2,7-7v-98.7c0-3.9-3.2-7.1-7-7.1H-578.1z"/>
		</g>
		<g>
			<path class="st4" d="M-613.4,339.8h-7c-11.7,0-21.2-9.5-21.2-21.1v-98.7c0-11.7,9.5-21.1,21.2-21.1h98.7
				c11.7,0,21.1,9.5,21.1,21.1v7.1c0,3.9-3.2,7.1-7,7.1c-3.9,0-7.1-3.2-7.1-7.1v-7.1c0-3.9-3.2-7.1-7-7.1h-98.7c-3.9,0-7,3.2-7,7.1
				v98.7c0,3.9,3.2,7,7,7h7c3.9,0,7,3.2,7,7C-606.3,336.6-609.5,339.8-613.4,339.8z"/>
		</g>
	</g>
	<path class="st2" d="M-57.8,219.9h-141c-11.7,0-21.1,9.5-21.1,21.1v98.7c0,11.7,9.5,21.1,21.1,21.1h141c11.7,0,21.2-9.5,21.2-21.1
		v-98.7C-36.6,229.4-46.1,219.9-57.8,219.9z M-205.9,244l43,43l-43,49.1V244z M-128.3,301.6l-67.6-67.6h135.2L-128.3,301.6z
		 M-152.9,297l19.6,19.6c1.4,1.4,3.2,2.1,5,2.1c1.8,0,3.6-0.7,5-2.1l19.6-19.6l43.6,49.9h-136.4L-152.9,297z M-93.7,287l43-43v92.1
		L-93.7,287z"/>
	<g class="st3">
		<path class="st4" d="M293.4,378.6c-1.4,0-2.8-0.4-4-1.2c-9.7-6.6-94.7-66-94.7-111.6c0-55.2,35.3-63.4,56.4-63.5c0,0,0,0,0,0
			c14.4,0,31.4,7.3,42.3,17.6c10.8-10.2,27.9-17.5,42.3-17.6l0,0c0.2,0,0.3,0,0.5,0c16.7,0,30,4.8,39.6,14.4
			c10.9,10.8,16.4,27.3,16.4,49.1c0,45.6-85,105-94.7,111.6C296.1,378.1,294.8,378.6,293.4,378.6z M251.1,216.4
			C251.1,216.4,251.1,216.4,251.1,216.4c-28.5,0-42.3,16.2-42.3,49.4c0,30.8,57.7,78.1,84.6,97.2c26.9-19.1,84.6-66.4,84.6-97.2
			c0-17.9-4.1-31-12.2-39.1c-6.9-6.9-17-10.2-30-10.3l0,0c-12.8,0.1-29.6,8.4-36.6,18.2c-2.6,3.7-8.8,3.7-11.5,0
			C279.9,223.7,262.5,216.4,251.1,216.4z"/>
	</g>
	<g class="st3">
		<path class="st4" d="M715,198.8c-50.5,0-91.7,41.1-91.7,91.7s41.1,91.7,91.7,91.7c50.5,0,91.7-41.1,91.7-91.7
			S765.6,198.8,715,198.8z M715,368c-42.8,0-77.6-34.8-77.6-77.6s34.8-77.6,77.6-77.6s77.6,34.8,77.6,77.6S757.8,368,715,368z"/>
		<path class="st4" d="M715,241.1c-3.9,0-7,3.2-7,7.1v49.4c0,3.9,3.2,7,7,7s7-3.2,7-7v-49.4C722.1,244.2,718.9,241.1,715,241.1z"/>
		<circle class="st4" cx="715" cy="325.7" r="7"/>
	</g>
	<path class="st2" d="M1224.8,307.1c0-4.6-1.2-9.2-3.5-13.2c0.6-2.2,0.9-4.6,0.9-6.9c0-14.1-11.3-26-25.8-27.1l-0.9-0.1l-6.8-0.8
		l-0.9,0l-3.4-0.1l-5.1,0.2c-1.2,0.1-2.5,0.2-4,0.4l-2.1,0.2c-1.8,0.2-3.8,0.5-5.8,0.9l3.7-14.4c2.2-9.8,2.7-16.4,1.6-21.4
		c-0.3-6.3-3.2-12.8-8.2-17.8l0,0c-5.4-5.5-12.8-8.6-19.8-8.3c-5.4,0.2-10.2,2.5-13.5,6.4c-3.2,3.8-4.7,8.6-4.5,14.7l0.5,4.9
		l-10.2,24.2c-3,6.4-5.4,10.6-8.7,14.8l-9.9,11.6c-1.6,1.8-3.1,4-4.5,6.5l-27.4-1.6c-7.2-0.4-13.4,4.6-14.7,11.6
		c-2.3,12.5-3.4,25.3-3.4,37.8c0,12.2,1.1,24,3.2,35.1c1.4,7.3,8.3,12.3,15.7,11.4l25.2-3.2c1.5-0.2,3-0.5,4.4-1
		c0.3,0.1,0.5,0.3,0.8,0.4c6.2,2.5,35.3,9.8,62.7,9.8c16,0,31.4-2.5,41.5-9.7c7.9-5.7,11.8-13.9,11.2-24.1
		c4.9-5.4,7.7-12.4,7.7-19.8c0-2.2-0.2-4.4-0.7-6.5C1223.2,317.7,1224.8,312.5,1224.8,307.1z M1065.6,362.2c-2-10.2-3-21.1-3-32.4
		c0-11.7,1.1-23.6,3.2-35.4l25.1,1.4l-0.1,63.2c0,0,0,0,0,0L1065.6,362.2z M1207.3,315.7l-3.1,3.2l1.6,4.1c0.7,1.7,1,3.6,1,5.5
		c0,4.5-2,8.7-5.4,11.6l-3,2.5l0.5,3.9c0,0.3,0.1,0.6,0.1,0.9l0.1,1.7c0.4,5.3-1.3,8.9-5.4,11.9c-18.8,13.5-73.5,4.2-88.8-1
		l0.1-68.6c1.3-2.7,2.7-5.1,4.1-6.7l10.5-12.3c3.9-5.1,6.8-10,10.3-17.4l11-25.9c0.5-1.3,0.7-2.7,0.7-4.3l-0.5-4.2l-0.1-0.8
		l-0.1-0.9c-0.1-2.1,0.3-3.5,1.2-4.6c0.3-0.3,1.1-1.3,3.3-1.4c3-0.1,6.6,1.5,9.2,4.2c2.6,2.6,4.1,5.9,4.1,8.8l0.2,1.8
		c0.4,1.5,0.7,5.4-1.5,15.5l-4.4,16.7l-1.5,5.9c-0.4,1.9-0.6,3.2-0.5,4.4l0.3,8.7l8.5-2.1c5.6-1.4,10.7-2.4,15.2-3l1.9-0.2
		c1.2-0.1,2.3-0.2,3.3-0.3l4.2-0.1l1.2,0l1.2,0l0.9,0.1l0.9,0.1l0.8,0.1l0.9,0.1l4.9,0.6c7.2,0.5,12.8,6.3,12.8,13.1
		c0,1.8-0.4,3.5-1.1,5.1l-1.7,3.9l2.7,3.3c1.8,2.2,2.7,4.9,2.7,7.8C1210.7,310.3,1209.5,313.4,1207.3,315.7z"/>
	<g class="st3">
		<path class="st4" d="M1558.3,191.7c-42,0-77.6,35.5-77.6,77.6c0,39.6,65,109.8,72.4,117.6c1.3,1.4,3.2,2.2,5.1,2.2
			c1.9,0,3.8-0.8,5.1-2.2c7.4-7.9,72.4-78,72.4-117.6C1635.9,227.2,1600.4,191.7,1558.3,191.7z M1558.3,371.7
			c-21.6-23.9-63.5-75.9-63.5-102.4c0-33.8,29.7-63.5,63.5-63.5c33.8,0,63.5,29.6,63.5,63.5C1621.8,295.8,1579.9,347.7,1558.3,371.7
			z"/>
		<path class="st4" d="M1558.3,227c-23.3,0-42.3,19-42.3,42.3s19,42.3,42.3,42.3c23.3,0,42.3-19,42.3-42.3S1581.7,227,1558.3,227z
			 M1558.3,297.5c-15.6,0-28.2-12.6-28.2-28.2s12.7-28.2,28.2-28.2c15.6,0,28.2,12.6,28.2,28.2
			C1586.5,284.8,1573.9,297.5,1558.3,297.5z"/>
	</g>
	<g class="st3">
		<polygon class="st4" points="-608.3,673.5 -612.4,679.3 -605.4,680.3 -604.8,676 		"/>
		<path class="st4" d="M-472.7,699.2l-6.6-4.6c0.2-2,0.3-4.1,0.3-6.2s-0.1-4.2-0.3-6.2l6.6-4.6c9-6.3,11.8-18.4,6.3-28l-8.2-14.2
			c-5.5-9.5-17.4-13.2-27.3-8.6l-7.6,3.6c-3.3-2.3-6.7-4.2-10.4-5.9l-0.7-8.5c-0.9-11-10.1-19.4-21.1-19.4h-16.3
			c-11,0-20.2,8.4-21.1,19.4l-0.7,8.8c-3.5,1.7-6.8,3.6-9.9,5.8l-8.1-3.8c-10-4.7-21.8-1-27.3,8.6l-8.2,14.2
			c-5.5,9.5-2.8,21.7,6.3,28l7.5,5.2c-0.2,1.9-0.4,3.7-0.4,5.6c0,1.9,0.2,3.7,0.4,5.6l-7.5,5.2c-9,6.3-11.8,18.4-6.3,28l8.2,14.2
			c5.5,9.5,17.4,13.2,27.3,8.6l8.1-3.8c3.1,2.2,6.4,4.1,9.9,5.8l0.7,8.8c0.9,11,10.1,19.4,21.1,19.4h16.3c11,0,20.2-8.4,21.1-19.4
			l0.7-8.5c3.6-1.7,7.1-3.7,10.4-5.9l7.6,3.6c10,4.7,21.8,1,27.3-8.6l8.2-14.2C-461,717.7-463.7,705.5-472.7,699.2z M-486.9,734.3
			c-1.8,3.2-5.8,4.4-9.1,2.8l-11.2-5.3l-3,6.4l-4.4-5.5c-4.4,3.5-9.3,6.3-14.6,8.4l2.5,6.6l0,0l-2.5-6.6l-4.1,1.6l-0.4,4.4l-1,12.5
			c-0.3,3.7-3.4,6.5-7,6.5h-16.3c-3.7,0-6.7-2.8-7-6.5l-1.1-12.8l-7,0.6l0,0l7-0.6l-0.4-4.3l-4-1.6c-5.1-2.1-9.9-4.9-14.2-8.3
			l-3.4-2.8l-4,1.9l-11.7,5.5c-3.3,1.6-7.3,0.3-9.1-2.8l-8.2-14.2c-1.8-3.2-0.9-7.2,2.1-9.3l10.8-7.5l3.6-2.5l-0.6-4.3l-7,1l0,0l7-1
			c-0.4-2.6-0.6-5.3-0.6-8.1s0.2-5.5,0.6-8.1l-7-1l4-5.8l-10.8-7.5c-3-2.1-3.9-6.1-2.1-9.3l8.2-14.2c1.8-3.2,5.8-4.4,9.1-2.8
			l11.7,5.5l4,1.9l3.4-2.8c4.3-3.4,9-6.2,14.2-8.3l4-1.6l0.4-4.3l-7-0.6l0,0l7,0.6l1.1-12.8c0.3-3.7,3.4-6.5,7-6.5h16.3
			c3.7,0,6.7,2.8,7,6.5l1,12.5l0.4,4.4l4.1,1.6l2.5-6.6l0,0l-2.5,6.6c5.3,2,10.2,4.9,14.6,8.4l3.4,2.7l4-1.9l-3-6.4l0,0l3,6.4
			l11.2-5.3c3.3-1.6,7.3-0.3,9.1,2.8l8.2,14.2c1.8,3.2,0.9,7.2-2.1,9.3l-10.1,7l-3.6,2.5l0.7,4.3l7-1.1l0,0l-7,1.1
			c0.4,2.8,0.6,5.6,0.6,8.5s-0.2,5.8-0.6,8.5l7,1.1l0,0l-7-1.1l-0.7,4.3l3.6,2.5l10.1,7c3,2.1,3.9,6.1,2.1,9.3L-486.9,734.3z"/>
		<polygon class="st4" points="-514.6,732.7 -510.2,738.2 -507.2,731.8 -511.2,730 		"/>
		<path class="st4" d="M-549.5,653.2c-19.4,0-35.3,15.8-35.3,35.3s15.8,35.3,35.3,35.3s35.3-15.8,35.3-35.3
			C-514.3,669-530.1,653.2-549.5,653.2z M-549.5,709.6c-11.7,0-21.2-9.5-21.2-21.2c0-11.7,9.5-21.2,21.2-21.2
			c11.7,0,21.2,9.5,21.2,21.2C-528.4,700.1-537.9,709.6-549.5,709.6z"/>
	</g>
	<g class="st3">
		<path class="st4" d="M-175.3,773c-2.1,0-4.3-0.5-6.3-1.5c-4.8-2.4-7.8-7.2-7.8-12.6v-141c0-5.4,3-10.2,7.8-12.6
			c4.8-2.4,10.5-1.9,14.8,1.3l94,70.5c3.6,2.7,5.6,6.8,5.6,11.3c0,4.5-2.1,8.6-5.7,11.3l-94,70.5C-169.3,772.1-172.3,773-175.3,773z
			 M-175.3,617.9v141l94-70.5L-175.3,617.9z"/>
	</g>
	<path class="st2" d="M368.9,754l-40.1-40.1c8.7-10.9,13.9-24.6,13.9-39.6c0-35-28.5-63.5-63.5-63.5s-63.5,28.5-63.5,63.5
		c0,35,28.5,63.5,63.5,63.5c15,0,28.7-5.2,39.6-13.9l40.1,40.1c1.4,1.4,3.2,2.1,5,2.1c1.8,0,3.6-0.7,5-2.1
		C371.6,761.2,371.6,756.7,368.9,754z M279.3,723.7c-27.2,0-49.4-22.1-49.4-49.4S252,625,279.3,625s49.4,22.1,49.4,49.4
		S306.5,723.7,279.3,723.7z"/>
	<g class="st3">
		<path class="st4" d="M786.1,614.5c-9.2-0.7-22.6-2.4-33.6-6.1c-7.7-2.5-15.2-6.4-22.5-11.4c-8.8-6.1-21.1-6.1-30,0
			c-7.3,5-14.8,8.9-22.5,11.4c-11,3.7-24.4,5.3-33.6,6.1c-12.7,1-20.6,8.3-20.6,19.1v45c0,74.3,65.6,105.8,91.7,105.8
			s91.7-31.5,91.7-105.8v-45C806.7,622.9,798.8,615.5,786.1,614.5z M792.6,678.6c0,67.7-61.8,91.7-77.6,91.7
			c-15.8,0-77.6-23.9-77.6-91.7v-45c0-1.1,0-4.5,7.6-5.1c10-0.8,24.6-2.6,37-6.7c8.9-3,17.7-7.4,26.1-13.2c4-2.8,10-2.8,13.9,0
			c8.4,5.8,17.1,10.2,26.1,13.2c12.4,4.1,26.9,6,37,6.7c7.6,0.6,7.6,4,7.6,5.1L792.6,678.6L792.6,678.6z"/>
		<path class="st4" d="M745,652.8l-43.6,49.9l-15.9-21.2c-2.3-3.1-6.7-3.8-9.9-1.4c-3.1,2.3-3.8,6.8-1.4,9.9l21.2,28.2
			c1.3,1.7,3.2,2.7,5.4,2.8c0.1,0,0.2,0,0.3,0c2,0,4-0.9,5.3-2.4l49.4-56.4c2.6-2.9,2.3-7.4-0.7-10C752,649.6,747.5,649.9,745,652.8
			z"/>
	</g>
	<g class="st3">
		<path class="st4" d="M1193.1,779.9c-1.3,0-2.6-0.3-3.7-1.1l-52.7-32.9l-52.7,32.9c-2.4,1.5-5.5,1.4-7.8-0.2
			c-2.3-1.6-3.4-4.5-2.8-7.3l13.3-59.7l-39.6-39.6c-1.9-1.9-2.6-4.7-1.7-7.3c0.9-2.5,3.1-4.4,5.8-4.7l52.7-6.6l26.5-53
			c2.4-4.8,10.2-4.8,12.6,0l26.5,53l52.7,6.6c2.7,0.3,4.9,2.2,5.8,4.7c0.9,2.5,0.2,5.4-1.7,7.3l-39.6,39.6l13.3,59.7
			c0.6,2.8-0.5,5.7-2.8,7.3C1195.9,779.5,1194.5,779.9,1193.1,779.9z M1136.7,730.6c1.3,0,2.6,0.4,3.7,1.1l42.1,26.3l-10.4-47
			c-0.5-2.3,0.2-4.8,1.9-6.5l32.1-32.1l-42.1-5.3c-2.3-0.3-4.4-1.7-5.4-3.8l-21.9-43.8l-21.9,43.8c-1.1,2.1-3.1,3.5-5.4,3.8
			l-42.1,5.3l32.1,32.1c1.7,1.7,2.4,4.2,1.9,6.5l-10.4,47l42.1-26.3C1134.1,730.9,1135.4,730.6,1136.7,730.6z"/>
	</g>
	<g class="st3">
		<path class="st4" d="M1558.3,596.8c-50.6,0-91.7,41.1-91.7,91.7s41.1,91.7,91.7,91.7s91.7-41.1,91.7-91.7
			S1608.9,596.8,1558.3,596.8z M1558.3,766c-42.8,0-77.6-34.8-77.6-77.6s34.8-77.6,77.6-77.6s77.6,34.8,77.6,77.6
			C1635.9,731.2,1601.1,766,1558.3,766z"/>
		<path class="st4" d="M1607.7,681.4h-42.3v-42.3c0-3.9-3.2-7-7.1-7s-7.1,3.2-7.1,7v49.4c0,3.9,3.2,7,7.1,7h49.4
			c3.9,0,7.1-3.2,7.1-7C1614.7,684.5,1611.6,681.4,1607.7,681.4z"/>
	</g>
	<g class="st3">
		<g>
			<path class="st4" d="M715,1079.4c-23.3,0-42.3-19-42.3-42.3c0-23.3,19-42.3,42.3-42.3s42.3,19,42.3,42.3
				C757.3,1060.4,738.4,1079.4,715,1079.4z M715,1008.9c-15.5,0-28.2,12.7-28.2,28.2c0,15.6,12.7,28.2,28.2,28.2
				s28.2-12.7,28.2-28.2C743.2,1021.5,730.6,1008.9,715,1008.9z"/>
		</g>
		<g>
			<path class="st4" d="M715,1178.1c-39.5,0-70.5-20.1-70.5-45.8s31-45.8,70.5-45.8c39.5,0,70.5,20.1,70.5,45.8
				C785.5,1158,754.6,1178.1,715,1178.1z M715,1100.5c-30.6,0-56.4,14.5-56.4,31.7s25.8,31.7,56.4,31.7c30.6,0,56.4-14.5,56.4-31.7
				S745.6,1100.5,715,1100.5z"/>
		</g>
	</g>
	<g class="st3">
		<path class="st4" d="M-452.4,1082.6c-1.8-2.7-43.7-66.7-97.6-66.7s-95.8,64-97.6,66.7l-2.5,3.8l2.5,3.8
			c1.8,2.7,43.7,66.7,97.6,66.7s95.8-64,97.6-66.7l2.5-3.8L-452.4,1082.6z M-549.9,1142.8c-39.2,0-73.5-43.1-83.1-56.4
			c9.6-13.3,43.8-56.4,83.1-56.4c39.2,0,73.5,43.1,83.1,56.4C-476.5,1099.7-510.7,1142.8-549.9,1142.8z"/>
		<path class="st4" d="M-549.9,1044.1c-23.3,0-42.3,19-42.3,42.3s19,42.3,42.3,42.3s42.3-19,42.3-42.3S-526.6,1044.1-549.9,1044.1z
			 M-549.9,1114.6c-15.5,0-28.2-12.7-28.2-28.2s12.7-28.2,28.2-28.2s28.2,12.7,28.2,28.2S-534.4,1114.6-549.9,1114.6z"/>
	</g>
	<g class="st3">
		<path class="st4" d="M-71.9,1008.9h-112.8c-19.4,0-35.3,15.8-35.3,35.3v84.6c0,19.4,15.8,35.3,35.3,35.3h112.8
			c19.4,0,35.3-15.8,35.3-35.3v-21.2v-42.3v-21.2C-36.6,1024.7-52.4,1008.9-71.9,1008.9z M-71.9,1149.9h-112.8
			c-11.7,0-21.1-9.5-21.1-21.2v-84.6c0-11.7,9.5-21.2,21.1-21.2h112.8c11.7,0,21.2,9.5,21.2,21.2v14.1H-93
			c-15.6,0-28.2,12.7-28.2,28.2s12.7,28.2,28.2,28.2h42.3v14.1C-50.7,1140.4-60.2,1149.9-71.9,1149.9z M-50.7,1100.5H-93
			c-7.8,0-14.1-6.3-14.1-14.1s6.3-14.1,14.1-14.1h42.3C-50.7,1072.3-50.7,1100.5-50.7,1100.5z"/>
		<circle class="st4" cx="-86" cy="1086.4" r="7.1"/>
	</g>
	<path class="st2" d="M293.4,994.8c-50.6,0-91.7,41.1-91.7,91.7c0,50.6,41.1,91.7,91.7,91.7s91.7-41.1,91.7-91.7
		C385,1035.9,343.9,994.8,293.4,994.8z M358.3,1044.1h-21c-3-11-7.1-20.6-12.2-28.4C338.7,1021.9,350.2,1031.8,358.3,1044.1z
		 M328.6,1086.4c0,10.2-1,19.6-2.6,28.2h-65.4c-1.6-8.6-2.6-18-2.6-28.2c0-10.2,1-19.6,2.6-28.2h65.4
		C327.7,1066.8,328.6,1076.3,328.6,1086.4z M293.4,1164c-10.8,0-22.4-13.4-29.2-35.3h58.4C315.7,1150.6,304.2,1164,293.4,1164z
		 M264.2,1044.1c6.8-21.8,18.4-35.3,29.2-35.3c10.8,0,22.4,13.4,29.2,35.3H264.2z M261.6,1015.7c-5,7.8-9.2,17.4-12.2,28.4h-21
		C236.5,1031.8,248,1021.9,261.6,1015.7z M221.2,1058.2h25.1c-1.5,8.9-2.3,18.3-2.3,28.2s0.8,19.3,2.3,28.2h-25.1
		c-3.4-8.8-5.4-18.2-5.4-28.2S217.8,1067,221.2,1058.2z M228.4,1128.7h21c3,11,7.2,20.6,12.2,28.4
		C248,1151,236.5,1141.1,228.4,1128.7z M325.1,1157.1c5-7.8,9.2-17.4,12.2-28.4h21C350.2,1141.1,338.7,1151,325.1,1157.1z
		 M365.5,1114.6h-25.1c1.5-8.9,2.3-18.3,2.3-28.2s-0.8-19.3-2.3-28.2h25.1c3.4,8.8,5.4,18.2,5.4,28.2S369,1105.9,365.5,1114.6z"/>
</g>
<g>
	<path class="st4" d="M711.4,965c-10.8,0-21.6-4.1-29.9-12.4L258.8,529.9c-16.5-16.5-16.5-43.3,0-59.8L681.5,47.4
		c16.5-16.5,43.3-16.5,59.8,0s16.5,43.3,0,59.8L348.4,500l392.8,392.8c16.5,16.5,16.5,43.3,0,59.8C733,960.9,722.2,965,711.4,965z"
		/>
</g>
<g class="st1">
	<path class="st2" d="M933.3,795.9H66.7c-23.9,0-43.3,18.9-43.3,42.3s19.4,42.3,43.3,42.3h866.6c23.9,0,43.3-18.9,43.3-42.3
		S957.2,795.9,933.3,795.9z"/>
	<path class="st2" d="M933.3,457.7H66.7c-23.9,0-43.3,18.9-43.3,42.3c0,23.3,19.4,42.3,43.3,42.3h866.6c23.9,0,43.3-18.9,43.3-42.3
		C976.6,476.7,957.2,457.7,933.3,457.7z"/>
	<path class="st2" d="M66.7,204.1h866.6c23.9,0,43.3-18.9,43.3-42.3s-19.4-42.3-43.3-42.3H66.7c-23.9,0-43.3,18.9-43.3,42.3
		S42.8,204.1,66.7,204.1z"/>
</g>
</svg>
