<?xml version="1.0" encoding="utf-8"?>
<!-- Generator: Adobe Illustrator 27.2.0, SVG Export Plug-In . SVG Version: 6.00 Build 0)  -->
<svg version="1.1" id="Layer_1" xmlns="http://www.w3.org/2000/svg" xmlns:xlink="http://www.w3.org/1999/xlink" x="0px" y="0px"
	 viewBox="0 0 1000 1000" style="enable-background:new 0 0 1000 1000;" xml:space="preserve">
<style type="text/css">
	.st0{display:none;fill:#FF0000;}
	.st1{display:none;}
	.st2{fill:#4D4D4D;}
	.st3{display:inline;fill:#4D4D4D;}
	.st4{display:inline;}
</style>
<rect class="st0" width="1000" height="1000"/>
<g class="st1">
	<path class="st2" d="M-472.38-114.63h-138.1L-552-173.1c2.75-2.75,2.75-7.22,0-9.97c-2.75-2.75-7.22-2.75-9.97,0l-70.51,70.51
		c-2.75,2.75-2.75,7.22,0,9.97l70.51,70.51c1.38,1.38,3.18,2.07,4.99,2.07c1.8,0,3.61-0.69,4.99-2.07c2.75-2.75,2.75-7.22,0-9.97
		l-58.47-58.47h138.1c3.89,0,7.05-3.16,7.05-7.05C-465.33-111.47-468.48-114.63-472.38-114.63z"/>
	<path class="st2" d="M363.88-114.63h-63.46v-63.46c0-3.89-3.16-7.05-7.05-7.05c-3.89,0-7.05,3.16-7.05,7.05v63.46h-63.46
		c-3.89,0-7.05,3.16-7.05,7.05c0,3.89,3.16,7.05,7.05,7.05h63.46v63.46c0,3.89,3.16,7.05,7.05,7.05c3.89,0,7.05-3.16,7.05-7.05
		v-63.46h63.46c3.89,0,7.05-3.16,7.05-7.05C370.93-111.47,367.78-114.63,363.88-114.63z"/>
	<g>
		<path class="st3" d="M1642.4,1034.35c-0.36-0.86-0.87-1.63-1.52-2.27l-42.3-42.3c-0.65-0.65-1.42-1.16-2.27-1.52
			c-0.85-0.36-1.77-0.55-2.71-0.55h-98.72c-11.66,0-21.15,9.49-21.15,21.15v155.12c0,11.66,9.49,21.15,21.15,21.15h126.92
			c11.66,0,21.15-9.49,21.15-21.15v-126.92C1642.95,1036.13,1642.76,1035.21,1642.4,1034.35z M1600.64,1011.78l18.23,18.23h-18.23
			V1011.78z M1621.8,1171.04h-126.92c-3.89,0-7.05-3.16-7.05-7.05v-155.12c0-3.89,3.16-7.05,7.05-7.05h91.66v35.26
			c0,3.89,3.16,7.05,7.05,7.05h35.26v119.87C1628.85,1167.88,1625.68,1171.04,1621.8,1171.04z"/>
		<path class="st3" d="M1551.28,1114.63h-28.2c-3.89,0-7.05,3.16-7.05,7.05c0,3.89,3.16,7.05,7.05,7.05h28.2
			c3.89,0,7.05-3.16,7.05-7.05C1558.34,1117.79,1555.18,1114.63,1551.28,1114.63z"/>
		<path class="st3" d="M1593.59,1086.43h-70.51c-3.89,0-7.05,3.16-7.05,7.05c0,3.89,3.16,7.05,7.05,7.05h70.51
			c3.89,0,7.05-3.16,7.05-7.05C1600.64,1089.58,1597.49,1086.43,1593.59,1086.43z"/>
		<path class="st3" d="M1593.59,1058.22h-70.51c-3.89,0-7.05,3.16-7.05,7.05c0,3.89,3.16,7.05,7.05,7.05h70.51
			c3.89,0,7.05-3.16,7.05-7.05C1600.64,1061.38,1597.49,1058.22,1593.59,1058.22z"/>
	</g>
	<g>
		<path class="st3" d="M1200.14,1178.09c-1.37,0-2.73-0.4-3.91-1.18l-59.55-39.7l-59.55,39.7c-2.17,1.43-4.96,1.57-7.24,0.35
			c-2.29-1.23-3.73-3.62-3.73-6.22v-155.12c0-11.66,9.49-21.15,21.15-21.15h98.72c11.66,0,21.15,9.49,21.15,21.15v155.12
			c0,2.6-1.43,4.99-3.73,6.22C1202.43,1177.81,1201.28,1178.09,1200.14,1178.09z M1136.68,1121.68c1.36,0,2.73,0.4,3.91,1.18
			l52.5,35v-141.95c0-3.89-3.16-7.05-7.05-7.05h-98.72c-3.89,0-7.05,3.16-7.05,7.05v141.95l52.5-35
			C1133.95,1122.08,1135.32,1121.68,1136.68,1121.68z"/>
	</g>
	<g>
		<path class="st3" d="M1115.53-51.17c-0.03,0-0.07,0-0.1,0c-2-0.03-3.89-0.91-5.2-2.41l-49.36-56.41
			c-2.56-2.93-2.27-7.38,0.66-9.95c2.93-2.57,7.38-2.27,9.95,0.66l44.21,50.52l86.34-92.99c2.65-2.85,7.11-3.01,9.97-0.37
			c2.85,2.65,3.02,7.11,0.37,9.97l-91.66,98.72C1119.36-51.99,1117.49-51.17,1115.53-51.17z"/>
	</g>
	<path class="st2" d="M725-107.58l58.47-58.47c2.75-2.75,2.75-7.22,0-9.97c-2.75-2.75-7.22-2.75-9.97,0l-58.47,58.47l-58.47-58.47
		c-2.75-2.75-7.22-2.75-9.97,0c-2.75,2.75-2.75,7.22,0,9.97l58.47,58.47L646.58-49.1c-2.75,2.75-2.75,7.22,0,9.97
		c1.38,1.38,3.18,2.07,4.99,2.07c1.8,0,3.61-0.69,4.99-2.07l58.47-58.47l58.47,58.47c1.38,1.38,3.18,2.07,4.99,2.07
		c1.8,0,3.61-0.69,4.99-2.07c2.75-2.75,2.75-7.22,0-9.97L725-107.58z"/>
	<g>
		<g class="st4">
			<path class="st2" d="M-479.43,382.09h-98.72c-11.66,0-21.15-9.49-21.15-21.15v-98.72c0-11.66,9.49-21.15,21.15-21.15h98.72
				c11.66,0,21.15,9.49,21.15,21.15v98.72C-458.27,372.6-467.76,382.09-479.43,382.09z M-578.14,255.17c-3.89,0-7.05,3.16-7.05,7.05
				v98.72c0,3.89,3.16,7.05,7.05,7.05h98.72c3.89,0,7.05-3.16,7.05-7.05v-98.72c0-3.89-3.16-7.05-7.05-7.05H-578.14z"/>
		</g>
		<g class="st4">
			<path class="st2" d="M-613.4,339.78h-7.05c-11.66,0-21.15-9.49-21.15-21.15v-98.72c0-11.66,9.49-21.15,21.15-21.15h98.72
				c11.66,0,21.15,9.49,21.15,21.15v7.05c0,3.89-3.16,7.05-7.05,7.05c-3.89,0-7.05-3.16-7.05-7.05v-7.05c0-3.89-3.16-7.05-7.05-7.05
				h-98.72c-3.89,0-7.05,3.16-7.05,7.05v98.72c0,3.89,3.16,7.05,7.05,7.05h7.05c3.89,0,7.05,3.16,7.05,7.05
				C-606.35,336.62-609.5,339.78-613.4,339.78z"/>
		</g>
	</g>
	<path class="st2" d="M-57.77,219.91h-141.02c-11.66,0-21.15,9.49-21.15,21.15v98.72c0,11.66,9.49,21.15,21.15,21.15h141.02
		c11.66,0,21.15-9.49,21.15-21.15v-98.72C-36.62,229.4-46.11,219.91-57.77,219.91z M-205.85,243.98l43,43l-43,49.14V243.98z
		 M-128.28,301.61l-67.59-67.59h135.18L-128.28,301.61z M-152.85,296.98l19.58,19.58c1.38,1.38,3.18,2.07,4.99,2.07
		c1.8,0,3.61-0.69,4.99-2.07l19.58-19.58l43.62,49.85h-136.39L-152.85,296.98z M-93.72,286.98l43-43v92.14L-93.72,286.98z"/>
	<g>
		<path class="st3" d="M293.37,378.56c-1.39,0-2.77-0.41-3.98-1.23c-9.7-6.62-94.74-65.99-94.74-111.59
			c0-55.17,35.34-63.44,56.4-63.46c0.01,0,0.03,0,0.04,0c14.38,0,31.41,7.34,42.28,17.61c10.84-10.19,27.85-17.53,42.26-17.61l0,0
			c0.16,0,0.32,0,0.48,0c16.67,0,29.98,4.83,39.56,14.36c10.88,10.82,16.4,27.34,16.4,49.1c0,45.6-85.04,104.97-94.74,111.59
			C296.15,378.15,294.76,378.56,293.37,378.56z M251.1,216.39c-0.01,0-0.01,0-0.02,0c-28.47,0.03-42.31,16.17-42.31,49.36
			c0,30.76,57.71,78.1,84.61,97.17c26.9-19.09,84.61-66.44,84.61-97.17c0-17.87-4.12-31.02-12.24-39.1
			c-6.92-6.88-16.95-10.17-30.03-10.26l0,0c-12.84,0.07-29.61,8.41-36.61,18.2c-2.65,3.7-8.82,3.7-11.47,0
			C279.85,223.7,262.46,216.39,251.1,216.39z"/>
	</g>
	<g>
		<path class="st3" d="M715.03,198.76c-50.55,0-91.66,41.12-91.66,91.66s41.12,91.66,91.66,91.66c50.55,0,91.66-41.12,91.66-91.66
			S765.57,198.76,715.03,198.76z M715.03,367.98c-42.77,0-77.56-34.79-77.56-77.56c0-42.77,34.79-77.56,77.56-77.56
			c42.77,0,77.56,34.79,77.56,77.56C792.59,333.19,757.79,367.98,715.03,367.98z"/>
		<path class="st3" d="M715.03,241.06c-3.89,0-7.05,3.16-7.05,7.05v49.36c0,3.89,3.16,7.05,7.05,7.05c3.89,0,7.05-3.16,7.05-7.05
			v-49.36C722.08,244.22,718.92,241.06,715.03,241.06z"/>
		<circle class="st3" cx="715.03" cy="325.68" r="7.05"/>
	</g>
	<path class="st2" d="M1224.82,307.1c0-4.63-1.22-9.19-3.48-13.18c0.6-2.24,0.91-4.57,0.91-6.94c0-14.12-11.34-26.04-25.81-27.14
		l-0.9-0.1l-6.82-0.77l-0.86-0.05l-3.4-0.09l-5.11,0.18c-1.23,0.08-2.54,0.2-3.97,0.35l-2.09,0.25c-1.85,0.24-3.77,0.54-5.76,0.9
		l3.7-14.35c2.19-9.75,2.69-16.41,1.6-21.35c-0.29-6.33-3.25-12.76-8.2-17.77l0,0c-5.45-5.49-12.85-8.62-19.79-8.32
		c-5.41,0.22-10.2,2.49-13.49,6.4c-3.22,3.81-4.73,8.6-4.5,14.72l0.51,4.89l-10.25,24.24c-3.01,6.43-5.45,10.59-8.65,14.77
		l-9.89,11.62c-1.6,1.82-3.11,3.99-4.52,6.49l-27.39-1.56c-7.15-0.41-13.44,4.6-14.7,11.64c-2.26,12.54-3.41,25.26-3.41,37.81
		c0,12.2,1.08,24.01,3.22,35.09c1.41,7.32,8.27,12.32,15.66,11.37l25.2-3.22c1.5-0.19,2.96-0.52,4.37-0.99
		c0.27,0.14,0.54,0.27,0.82,0.38c6.24,2.55,35.29,9.76,62.71,9.76c15.99,0,31.43-2.45,41.47-9.7c7.89-5.7,11.77-13.91,11.23-24.11
		c4.95-5.36,7.73-12.39,7.73-19.81c0-2.2-0.24-4.36-0.72-6.47C1223.22,317.66,1224.82,312.49,1224.82,307.1z M1065.61,362.16
		c-1.97-10.2-2.97-21.11-2.97-32.42c0-11.71,1.07-23.59,3.21-35.37l25.11,1.43l-0.09,63.2c-0.01,0-0.02,0.01-0.03,0.01
		L1065.61,362.16z M1207.31,315.68l-3.06,3.23l1.6,4.15c0.67,1.73,1.01,3.56,1.01,5.45c0,4.5-1.97,8.72-5.41,11.59l-2.99,2.5
		l0.52,3.86c0.04,0.32,0.07,0.64,0.08,0.93l0.09,1.72c0.36,5.26-1.31,8.93-5.41,11.89c-18.75,13.53-73.48,4.19-88.78-1.03l0.1-68.61
		c1.3-2.73,2.69-5.09,4.08-6.67l10.48-12.33c3.89-5.09,6.77-9.97,10.26-17.42l10.96-25.95c0.51-1.26,0.73-2.67,0.66-4.3l-0.46-4.25
		l-0.08-0.77l-0.05-0.85c-0.08-2.12,0.28-3.49,1.22-4.6c0.27-0.32,1.1-1.3,3.28-1.39c3.01-0.13,6.58,1.51,9.21,4.16
		c2.58,2.61,4.13,5.9,4.14,8.82l0.25,1.81c0.4,1.46,0.72,5.4-1.53,15.46l-4.36,16.66l-1.49,5.92c-0.41,1.9-0.56,3.22-0.52,4.39
		l0.31,8.73l8.47-2.15c5.55-1.41,10.67-2.43,15.2-3.02l1.87-0.23c1.18-0.13,2.29-0.23,3.29-0.3l4.24-0.15l1.21,0.01l1.2,0.04
		l0.88,0.06l0.92,0.07l0.76,0.07l0.94,0.1l4.95,0.62c7.17,0.55,12.79,6.3,12.79,13.09c0,1.78-0.36,3.48-1.06,5.07l-1.73,3.91
		l2.66,3.34c1.78,2.23,2.71,4.92,2.71,7.79C1210.72,310.31,1209.51,313.36,1207.31,315.68z"/>
	<g>
		<path class="st3" d="M1558.34,191.71c-42.04,0-77.56,35.52-77.56,77.56c0,39.62,65.02,109.78,72.43,117.65
			c1.33,1.41,3.19,2.22,5.13,2.22c1.94,0,3.8-0.8,5.13-2.22c7.41-7.87,72.43-78.03,72.43-117.65
			C1635.9,227.23,1600.38,191.71,1558.34,191.71z M1558.34,371.67c-21.56-23.93-63.46-75.88-63.46-102.4
			c0-33.81,29.65-63.46,63.46-63.46c33.81,0,63.46,29.65,63.46,63.46C1621.8,295.79,1579.9,347.74,1558.34,371.67z"/>
		<path class="st3" d="M1558.34,226.96c-23.33,0-42.31,18.98-42.31,42.31s18.98,42.31,42.31,42.31c23.33,0,42.31-18.98,42.31-42.31
			S1581.67,226.96,1558.34,226.96z M1558.34,297.47c-15.55,0-28.2-12.65-28.2-28.2c0-15.55,12.65-28.2,28.2-28.2
			c15.55,0,28.2,12.65,28.2,28.2C1586.54,284.82,1573.89,297.47,1558.34,297.47z"/>
	</g>
	<g>
		<polygon class="st3" points="-608.34,673.52 -612.36,679.31 -605.38,680.31 -604.76,676 		"/>
		<path class="st3" d="M-472.72,699.22l-6.61-4.59c0.18-2.05,0.3-4.11,0.3-6.2c0-2.09-0.12-4.16-0.3-6.21l6.61-4.59
			c9.04-6.27,11.76-18.43,6.26-27.95l-8.18-14.16c-5.5-9.53-17.39-13.25-27.34-8.56l-7.63,3.59c-3.27-2.26-6.73-4.24-10.37-5.93
			l-0.71-8.46c-0.91-10.96-10.08-19.4-21.08-19.4h-16.35c-11,0-20.17,8.43-21.08,19.4l-0.74,8.83c-3.47,1.66-6.76,3.59-9.89,5.77
			l-8.08-3.81c-9.95-4.69-21.84-0.97-27.34,8.56l-8.18,14.16c-5.5,9.53-2.78,21.68,6.26,27.95l7.49,5.2c-0.15,1.86-0.4,3.7-0.4,5.6
			c0,1.9,0.25,3.74,0.4,5.6l-7.49,5.2c-9.04,6.27-11.76,18.43-6.26,27.95l8.18,14.16c5.5,9.53,17.39,13.25,27.34,8.56l8.08-3.81
			c3.12,2.19,6.42,4.11,9.89,5.77l0.74,8.83c0.91,10.96,10.08,19.4,21.08,19.4h16.35c11,0,20.17-8.43,21.08-19.4l0.71-8.46
			c3.64-1.69,7.1-3.67,10.37-5.93l7.63,3.59c9.95,4.69,21.84,0.97,27.34-8.56l8.18-14.16
			C-460.97,717.65-463.69,705.49-472.72,699.22z M-486.86,734.29c-1.83,3.18-5.8,4.42-9.11,2.85l-11.24-5.3l-3.01,6.38l-4.37-5.53
			c-4.4,3.48-9.32,6.31-14.62,8.36l2.54,6.58h0l-2.54-6.58l-4.12,1.59l-0.37,4.4l-1.04,12.47c-0.3,3.65-3.36,6.47-7.03,6.47h-16.35
			c-3.67,0-6.72-2.81-7.03-6.47l-1.07-12.79l-7.03,0.59v0l7.03-0.58l-0.36-4.33l-4.03-1.62c-5.14-2.07-9.91-4.87-14.17-8.29
			l-3.43-2.75l-3.98,1.87l-11.72,5.52c-3.32,1.56-7.28,0.32-9.11-2.85l-8.18-14.16c-1.83-3.18-0.93-7.23,2.09-9.32l10.77-7.47
			l3.58-2.48l-0.62-4.31l-6.98,1v0l6.98-1c-0.38-2.64-0.58-5.35-0.58-8.11s0.2-5.47,0.58-8.11l-6.98-1l4.02-5.79l-10.77-7.47
			c-3.01-2.09-3.92-6.14-2.09-9.32l8.18-14.16c1.83-3.18,5.8-4.42,9.11-2.85l11.72,5.52l3.98,1.88l3.43-2.75
			c4.27-3.41,9.03-6.22,14.17-8.29l4.03-1.62l0.36-4.33l-7.03-0.59v0l7.03,0.59l1.07-12.79c0.3-3.65,3.36-6.47,7.03-6.47h16.35
			c3.67,0,6.72,2.81,7.03,6.47l1.04,12.47l0.37,4.4l4.12,1.59l2.54-6.58l0,0l-2.54,6.58c5.31,2.05,10.23,4.89,14.62,8.36l3.43,2.71
			l3.95-1.86l-3.01-6.38l0,0l3.01,6.38l11.24-5.3c3.32-1.56,7.28-0.32,9.11,2.85l8.18,14.16c1.83,3.18,0.93,7.23-2.09,9.32
			l-10.07,6.99l-3.61,2.51l0.66,4.34l6.97-1.06l0,0l-6.97,1.06c0.42,2.78,0.64,5.63,0.64,8.54c0,2.91-0.22,5.76-0.64,8.54l6.97,1.06
			l0,0l-6.97-1.06l-0.66,4.34l3.61,2.51l10.07,6.99c3.01,2.09,3.92,6.14,2.09,9.32L-486.86,734.29z"/>
		<polygon class="st3" points="-514.59,732.69 -510.21,738.22 -507.21,731.84 -511.16,729.98 		"/>
		<path class="st3" d="M-549.55,653.17c-19.44,0-35.26,15.82-35.26,35.26c0,19.44,15.82,35.26,35.26,35.26
			c19.44,0,35.26-15.82,35.26-35.26C-514.3,668.98-530.12,653.17-549.55,653.17z M-549.55,709.58c-11.66,0-21.15-9.49-21.15-21.15
			c0-11.66,9.49-21.15,21.15-21.15c11.66,0,21.15,9.49,21.15,21.15C-528.4,700.09-537.89,709.58-549.55,709.58z"/>
	</g>
	<g>
		<path class="st3" d="M-175.27,773.05c-2.15,0-4.31-0.5-6.32-1.5c-4.81-2.41-7.79-7.24-7.79-12.61V617.91
			c0-5.37,2.99-10.21,7.8-12.61c4.81-2.41,10.47-1.88,14.77,1.34l94.01,70.51c3.58,2.69,5.64,6.8,5.64,11.28
			c0,4.49-2.06,8.6-5.65,11.29l-94.01,70.51C-169.33,772.09-172.29,773.05-175.27,773.05z M-175.29,617.91v141.02l94.01-70.51
			L-175.29,617.91z"/>
	</g>
	<path class="st2" d="M368.87,753.95l-40.06-40.06c8.69-10.86,13.93-24.6,13.93-39.56c0-34.99-28.47-63.46-63.46-63.46
		c-34.99,0-63.46,28.47-63.46,63.46c0,34.99,28.47,63.46,63.46,63.46c14.96,0,28.7-5.23,39.56-13.93l40.06,40.06
		c1.38,1.38,3.18,2.07,4.99,2.07c1.8,0,3.61-0.69,4.99-2.07C371.62,761.17,371.62,756.7,368.87,753.95z M279.27,723.68
		c-27.22,0-49.36-22.14-49.36-49.36c0-27.22,22.14-49.36,49.36-49.36c27.22,0,49.36,22.14,49.36,49.36
		C328.63,701.54,306.49,723.68,279.27,723.68z"/>
	<g>
		<path class="st3" d="M786.12,614.53c-9.23-0.73-22.56-2.37-33.61-6.06c-7.66-2.55-15.22-6.4-22.5-11.43
			c-8.81-6.1-21.14-6.1-29.97,0c-7.27,5.03-14.84,8.88-22.5,11.43c-11.05,3.68-24.38,5.33-33.61,6.06
			c-12.69,1-20.57,8.33-20.57,19.13v44.96c0,74.3,65.57,105.77,91.66,105.77s91.66-31.46,91.66-105.77v-44.96
			C806.69,622.86,798.81,615.53,786.12,614.53z M792.59,678.62c0,67.74-61.78,91.66-77.56,91.66c-15.79,0-77.56-23.92-77.56-91.66
			v-44.96c0-1.11,0-4.47,7.58-5.07c10.02-0.79,24.56-2.6,36.96-6.74c8.93-2.97,17.7-7.42,26.07-13.21c3.97-2.75,9.95-2.75,13.92,0
			c8.37,5.79,17.14,10.24,26.07,13.21c12.4,4.13,26.94,5.95,36.96,6.74c7.58,0.6,7.58,3.96,7.58,5.07V678.62z"/>
		<path class="st3" d="M744.98,652.82l-43.63,49.86l-15.93-21.25c-2.33-3.11-6.74-3.75-9.87-1.41c-3.12,2.33-3.75,6.76-1.41,9.87
			l21.15,28.2c1.27,1.7,3.25,2.73,5.37,2.82c0.09,0,0.18,0,0.27,0c2.03,0,3.97-0.87,5.31-2.41l49.36-56.41
			c2.57-2.93,2.27-7.39-0.66-9.95C752,649.6,747.54,649.9,744.98,652.82z"/>
	</g>
	<g>
		<path class="st3" d="M1193.09,779.93c-1.29,0-2.59-0.35-3.74-1.07l-52.67-32.92l-52.67,32.92c-2.41,1.5-5.49,1.42-7.81-0.22
			c-2.32-1.64-3.43-4.51-2.81-7.29l13.26-59.68l-39.57-39.57c-1.9-1.9-2.56-4.73-1.68-7.27c0.87-2.55,3.12-4.37,5.79-4.71
			l52.66-6.58l26.52-53.03c2.39-4.78,10.23-4.78,12.61,0l26.52,53.03l52.66,6.58c2.67,0.33,4.92,2.16,5.79,4.71
			c0.87,2.55,0.22,5.37-1.68,7.27l-39.57,39.57l13.26,59.68c0.62,2.77-0.49,5.65-2.81,7.29
			C1195.94,779.5,1194.52,779.93,1193.09,779.93z M1136.68,730.57c1.3,0,2.59,0.36,3.74,1.07l42.14,26.34l-10.45-47.03
			c-0.52-2.35,0.19-4.81,1.9-6.51l32.11-32.11l-42.1-5.26c-2.34-0.29-4.38-1.74-5.43-3.84l-21.9-43.8l-21.9,43.8
			c-1.05,2.11-3.1,3.55-5.43,3.84l-42.1,5.26l32.11,32.11c1.7,1.7,2.42,4.16,1.9,6.51l-10.45,47.03l42.14-26.34
			C1134.09,730.93,1135.38,730.57,1136.68,730.57z"/>
	</g>
	<g>
		<path class="st3" d="M1558.34,596.76c-50.55,0-91.66,41.12-91.66,91.66s41.12,91.66,91.66,91.66s91.66-41.12,91.66-91.66
			S1608.88,596.76,1558.34,596.76z M1558.34,765.99c-42.77,0-77.56-34.79-77.56-77.56c0-42.77,34.79-77.56,77.56-77.56
			c42.77,0,77.56,34.79,77.56,77.56C1635.9,731.19,1601.1,765.99,1558.34,765.99z"/>
		<path class="st3" d="M1607.69,681.37h-42.31v-42.31c0-3.89-3.16-7.05-7.05-7.05s-7.05,3.16-7.05,7.05v49.36
			c0,3.89,3.16,7.05,7.05,7.05h49.36c3.89,0,7.05-3.16,7.05-7.05C1614.74,684.53,1611.59,681.37,1607.69,681.37z"/>
	</g>
	<g>
		<g class="st4">
			<path class="st2" d="M715.03,1079.38c-23.33,0-42.31-18.98-42.31-42.31c0-23.33,18.98-42.31,42.31-42.31
				c23.33,0,42.31,18.98,42.31,42.31C757.33,1060.4,738.36,1079.38,715.03,1079.38z M715.03,1008.86c-15.55,0-28.2,12.65-28.2,28.2
				c0,15.55,12.65,28.2,28.2,28.2c15.55,0,28.2-12.65,28.2-28.2C743.23,1021.52,730.58,1008.86,715.03,1008.86z"/>
		</g>
		<g class="st4">
			<path class="st2" d="M715.03,1178.09c-39.54,0-70.51-20.13-70.51-45.83c0-25.7,30.97-45.83,70.51-45.83
				c39.54,0,70.51,20.13,70.51,45.83C785.54,1157.96,754.56,1178.09,715.03,1178.09z M715.03,1100.53
				c-30.58,0-56.41,14.53-56.41,31.73s25.83,31.73,56.41,31.73c30.58,0,56.41-14.53,56.41-31.73S745.6,1100.53,715.03,1100.53z"/>
		</g>
	</g>
	<g>
		<path class="st3" d="M-452.35,1082.6c-1.76-2.72-43.74-66.68-97.59-66.68s-95.82,63.96-97.59,66.68l-2.48,3.83l2.48,3.83
			c1.76,2.72,43.74,66.68,97.59,66.68s95.82-63.96,97.59-66.68l2.48-3.83L-452.35,1082.6z M-549.94,1142.83
			c-39.25,0-73.48-43.14-83.07-56.41c9.6-13.27,43.83-56.41,83.07-56.41c39.25,0,73.48,43.14,83.07,56.41
			C-476.46,1099.7-510.69,1142.83-549.94,1142.83z"/>
		<path class="st3" d="M-549.94,1044.12c-23.33,0-42.31,18.98-42.31,42.31s18.98,42.31,42.31,42.31s42.31-18.98,42.31-42.31
			S-526.61,1044.12-549.94,1044.12z M-549.94,1114.63c-15.55,0-28.2-12.65-28.2-28.2s12.65-28.2,28.2-28.2
			c15.55,0,28.2,12.65,28.2,28.2S-534.39,1114.63-549.94,1114.63z"/>
	</g>
	<g>
		<path class="st3" d="M-71.88,1008.86h-112.82c-19.44,0-35.26,15.82-35.26,35.26v84.61c0,19.44,15.82,35.26,35.26,35.26h112.82
			c19.44,0,35.26-15.82,35.26-35.26v-21.15v-42.31v-21.15C-36.62,1024.68-52.44,1008.86-71.88,1008.86z M-71.88,1149.89h-112.82
			c-11.66,0-21.15-9.49-21.15-21.15v-84.61c0-11.66,9.49-21.15,21.15-21.15h112.82c11.66,0,21.15,9.49,21.15,21.15v14.1h-42.31
			c-15.55,0-28.2,12.65-28.2,28.2s12.65,28.2,28.2,28.2h42.31v14.1C-50.72,1140.4-60.21,1149.89-71.88,1149.89z M-50.72,1100.53
			h-42.31c-7.78,0-14.1-6.32-14.1-14.1s6.32-14.1,14.1-14.1h42.31V1100.53z"/>
		<circle class="st3" cx="-85.98" cy="1086.43" r="7.05"/>
	</g>
	<path class="st2" d="M293.37,994.76c-50.55,0-91.66,41.12-91.66,91.66c0,50.55,41.12,91.66,91.66,91.66s91.66-41.12,91.66-91.66
		C385.04,1035.88,343.92,994.76,293.37,994.76z M358.29,1044.12h-21c-3.01-10.97-7.15-20.62-12.19-28.39
		C338.7,1021.86,350.21,1031.75,358.29,1044.12z M328.63,1086.43c0,10.17-0.96,19.6-2.57,28.2h-65.36
		c-1.61-8.6-2.57-18.03-2.57-28.2c0-10.17,0.96-19.6,2.57-28.2h65.36C327.67,1066.82,328.63,1076.26,328.63,1086.43z
		 M293.37,1163.99c-10.8,0-22.37-13.42-29.2-35.26h58.4C315.74,1150.57,304.17,1163.99,293.37,1163.99z M264.17,1044.12
		c6.83-21.84,18.4-35.26,29.2-35.26c10.8,0,22.37,13.42,29.2,35.26H264.17z M261.63,1015.73c-5.04,7.77-9.18,17.42-12.19,28.39h-21
		C236.53,1031.75,248.04,1021.86,261.63,1015.73z M221.2,1058.22h25.13c-1.49,8.86-2.31,18.32-2.31,28.2s0.82,19.35,2.31,28.2H221.2
		c-3.43-8.75-5.39-18.25-5.39-28.2S217.76,1066.98,221.2,1058.22z M228.45,1128.73h21c3.01,10.97,7.15,20.62,12.19,28.39
		C248.04,1151,236.53,1141.1,228.45,1128.73z M325.11,1157.12c5.04-7.77,9.17-17.42,12.19-28.39h21
		C350.21,1141.1,338.7,1151,325.11,1157.12z M365.55,1114.63h-25.13c1.49-8.86,2.31-18.32,2.31-28.2s-0.82-19.35-2.31-28.2h25.13
		c3.43,8.75,5.39,18.25,5.39,28.2S368.98,1105.88,365.55,1114.63z"/>
</g>
<g class="st1">
	<path class="st3" d="M711.36,964.99c-10.82,0-21.63-4.13-29.89-12.38L258.75,529.89c-16.51-16.51-16.51-43.26,0-59.78L681.47,47.39
		c16.51-16.51,43.26-16.51,59.77,0c16.51,16.51,16.51,43.26,0,59.78L348.42,500l392.83,392.83c16.51,16.51,16.51,43.26,0,59.78
		C732.99,960.86,722.18,964.99,711.36,964.99z"/>
</g>
<g>
	<path class="st2" d="M933.3,795.88H66.7c-23.93,0-43.33,18.93-43.33,42.27c0,23.34,19.4,42.27,43.33,42.27h866.6
		c23.93,0,43.33-18.93,43.33-42.27C976.63,814.81,957.23,795.88,933.3,795.88z"/>
	<path class="st2" d="M933.3,457.73H66.7c-23.93,0-43.33,18.93-43.33,42.27c0,23.34,19.4,42.27,43.33,42.27h866.6
		c23.93,0,43.33-18.93,43.33-42.27C976.63,476.66,957.23,457.73,933.3,457.73z"/>
	<path class="st2" d="M66.7,204.12h866.6c23.93,0,43.33-18.93,43.33-42.27s-19.4-42.27-43.33-42.27H66.7
		c-23.93,0-43.33,18.93-43.33,42.27S42.77,204.12,66.7,204.12z"/>
</g>
</svg>
